# xmcd CD database file
#
# Track frame offsets:
#	150
#	13869
#	36171
#	51303
#	79308
#	115122
#	132663
#	156775
#	173412
#	186824
#	206200
#	226394
#	238986
#
# Disc length: 4020 seconds
#
# Revision: 1
# Processed by: cddbd v1.5.2PL0 Copyright (c) Steve Scherf et al.
# Submitted via: CDex 1.70beta3
#
DISCID=b50fb20d
DTITLE=Cannonball Adderley - Soul Zodiac (Capitol SVBB 11025)
DYEAR=1972
DGENRE=Jazz
TTITLE0=Introduction
TTITLE1=Aries
TTITLE2=Libra
TTITLE3=Capricorn
TTITLE4=Aquarius
TTITLE5=Pisces
TTITLE6=Sagittarius
TTITLE7=Gemini
TTITLE8=Leo
TTITLE9=Virgo
TTITLE10=Scorpio
TTITLE11=Cancer
TTITLE12=Taurus
EXTD=YEAR: 1972
EXTT0=
EXTT1=
EXTT2=
EXTT3=
EXTT4=
EXTT5=
EXTT6=
EXTT7=
EXTT8=
EXTT9=
EXTT10=
EXTT11=
EXTT12=
PLAYORDER=
